<svg id="_7123025_logo_google_g_icon" data-name="7123025_logo_google_g_icon" xmlns="http://www.w3.org/2000/svg" width="20.639" height="21.058" viewBox="0 0 20.639 21.058">
  <path id="Path_1781" data-name="Path 1781" d="M86.016,68.933a13.168,13.168,0,0,0-.184-2.133H75.9v4.06h5.689a4.786,4.786,0,0,1-2.11,3.188l3.395,2.638a10.354,10.354,0,0,0,3.143-7.753Z" transform="translate(-65.377 -58.152)" fill="#4280ef"/>
  <path id="Path_1782" data-name="Path 1782" d="M44.3,92.387a10.072,10.072,0,0,0,6.973-2.546l-3.395-2.615a6.387,6.387,0,0,1-9.5-3.326L34.9,86.584A10.518,10.518,0,0,0,44.3,92.387Z" transform="translate(-33.782 -71.329)" fill="#34a353"/>
  <path id="Path_1783" data-name="Path 1783" d="M34.63,61.144a6.4,6.4,0,0,1,0-4.037L31.143,54.4a10.543,10.543,0,0,0,0,9.451Z" transform="translate(-30.025 -48.596)" fill="#f6b704"/>
  <path id="Path_1784" data-name="Path 1784" d="M44.3,33.273a5.744,5.744,0,0,1,4.037,1.583l3-3.028A10.133,10.133,0,0,0,44.3,29.1a10.518,10.518,0,0,0-9.4,5.8l3.487,2.707A6.3,6.3,0,0,1,44.3,33.273Z" transform="translate(-33.782 -29.098)" fill="#e54335"/>
</svg>
